<?xml version="1.0" encoding="UTF-8" standalone="no"?>
<svg width="150" height="30" viewBox="0 0 150 30" fill="none" xmlns="http://www.w3.org/2000/svg">
  <path d="M15 5H5V25H15V5Z" fill="#0D9373"/>
  <path d="M25 5H15V15H25V5Z" fill="#07C983"/>
  <path d="M25 15H15V25H25V15Z" fill="#0D9373"/>
  <path d="M35 5V25H32V5H35ZM46.3335 5V25H43.3335V15.6592H36.6665V25H33.6665V5H36.6665V13.1128H43.3335V5H46.3335ZM49.7592 25V5H52.7592V25H49.7592ZM67.761 20.709V25H54.761V5H67.4543V9.29098H57.761V12.8252H66.4543V16.9328H57.761V20.709H67.761ZM70.4025 25V5H76.5445C78.1555 5 79.5852 5.38557 80.8334 6.1567C82.0816 6.91783 83.0483 7.9953 83.7335 9.3891C84.4187 10.7829 84.7612 12.4097 84.7612 14.2696C84.7612 16.1294 84.4187 17.7642 83.7335 19.174C83.0483 20.5838 82.0816 21.6693 80.8334 22.4304C79.5852 23.1915 78.1555 23.5771 76.5445 23.5771H73.4025V25H70.4025ZM73.4025 20.5167H76.2316C77.238 20.5167 78.0654 20.3117 78.7137 19.9017C79.3621 19.4918 79.8476 18.9074 80.1704 18.1483C80.4931 17.3893 80.6545 16.4931 80.6545 15.4599V13.0793C80.6545 12.0461 80.4931 11.1579 80.1704 10.4148C79.8476 9.67174 79.3621 9.10352 78.7137 8.71016C78.0654 8.3168 77.238 8.12012 76.2316 8.12012H73.4025V20.5167ZM97.0815 5V8.12012H91.8159V25H88.8159V8.12012H83.5502V5H97.0815ZM96.3169 25V5H106.525C107.968 5 109.17 5.28264 110.132 5.84791C111.093 6.41318 111.81 7.17982 112.281 8.14783C112.753 9.11584 112.989 10.1971 112.989 11.3916C112.989 12.6202 112.745 13.7075 112.256 14.6533C111.768 15.5832 111.042 16.3178 110.081 16.8671C109.12 17.4163 107.91 17.6909 106.451 17.6909H99.3169V25H96.3169ZM99.3169 14.5708H106.266C106.956 14.5708 107.54 14.4706 108.017 14.2702C108.509 14.0699 108.879 13.7778 109.129 13.3942C109.393 12.9946 109.525 12.5152 109.525 11.9558V10.8273C109.525 10.2839 109.393 9.82043 109.129 9.43686C108.879 9.05329 108.509 8.76912 108.017 8.58437C107.54 8.39961 106.956 8.30723 106.266 8.30723H99.3169V14.5708ZM111.745 25L106.266 16.6999H110.056L115.633 25H111.745ZM121.035 25.1858C119.614 25.1858 118.376 24.8744 117.323 24.2516C116.284 23.6288 115.481 22.7584 114.914 21.6404C114.349 20.5064 114.066 19.182 114.066 17.6671V12.3328C114.066 10.8271 114.349 9.51054 114.914 8.38453C115.481 7.25852 116.284 6.39388 117.323 5.7806C118.376 5.1502 119.614 4.83501 121.035 4.83501C122.457 4.83501 123.687 5.1502 124.726 5.7806C125.78 6.39388 126.591 7.25852 127.158 8.38453C127.724 9.51054 128.007 10.8271 128.007 12.3328V17.6671C128.007 19.182 127.724 20.5064 127.158 21.6404C126.591 22.7584 125.78 23.6288 124.726 24.2516C123.687 24.8744 122.457 25.1858 121.035 25.1858ZM121.035 22.0047C121.657 22.0047 122.205 21.8548 122.678 21.5552C123.151 21.2395 123.522 20.782 123.788 20.1828C124.068 19.5836 124.207 18.8644 124.207 18.0252V11.9748C124.207 11.1356 124.068 10.4163 123.788 9.81713C123.522 9.21793 123.151 8.76439 122.678 8.46478C122.205 8.1513 121.657 7.99457 121.035 7.99457C120.413 7.99457 119.866 8.1513 119.393 8.46478C118.92 8.76439 118.543 9.21793 118.262 9.81713C117.995 10.4163 117.863 11.1356 117.863 11.9748V18.0252C117.863 18.8644 117.995 19.5836 118.262 20.1828C118.543 20.782 118.92 21.2395 119.393 21.5552C119.866 21.8548 120.413 22.0047 121.035 22.0047ZM130.046 25V5H133.046V22.0834H142.254V25H130.046Z" fill="#1E1E1E"/>
</svg>
