<svg width="112" height="32" viewBox="0 0 112 32" fill="none" xmlns="http://www.w3.org/2000/svg">
  <path d="M14.2 8C10.9 8 8.2 10.7 8.2 14C8.2 20.5 16.2 24.5 20 26C23.8 24.5 31.8 20.5 31.8 14C31.8 10.7 29.1 8 25.8 8C23.7 8 21.9 9.1 20.7 10.8C19.4 9.1 17 8 14.2 8Z" fill="#FF4D4F"/>
  <path d="M40 8H43V25H40V8Z" fill="#000"/>
  <path d="M46 8H49L55 19V8H58V25H55L49 14V25H46V8Z" fill="#000"/>
  <path d="M69 8H72V22H81V25H69V8Z" fill="#000"/>
  <path d="M83 8H96V11H86V15H94V18H86V22H96V25H83V8Z" fill="#000"/>
</svg>